<?xml version="1.0" encoding="UTF-8" standalone="no"?>
<svg
        xmlns:dc="http://purl.org/dc/elements/1.1/"
        xmlns:cc="http://creativecommons.org/ns#"
        xmlns:rdf="http://www.w3.org/1999/02/22-rdf-syntax-ns#"
        xmlns="http://www.w3.org/2000/svg"
        viewBox="0 0 181.33333 62.946667"
        height="62.946667"
        width="181.33333"
        xml:space="preserve"
        id="svg2"
        version="1.1"><metadata
     id="metadata8"><rdf:RDF><cc:Work
         rdf:about=""><dc:format>image/svg+xml</dc:format><dc:type
           rdf:resource="http://purl.org/dc/dcmitype/StillImage" /></cc:Work></rdf:RDF></metadata><defs
     id="defs6" /><g
     transform="matrix(1.3333333,0,0,-1.3333333,0,62.946667)"
     id="g10"><g
       transform="scale(0.1)"
       id="g12"><path
         id="path14"
         style="fill:#fcd205;fill-opacity:1;fill-rule:nonzero;stroke:none"
         d="M 0,0 H 1360.02 V 472.051 H 0 V 0" /><path
         id="path16"
         style="fill:#ffffff;fill-opacity:1;fill-rule:nonzero;stroke:none"
         d="m 972.281,118.438 14.66,68.796 H 152.234 l -14.64,-68.796 h 834.687" /><path
         id="path18"
         style="fill:#231f20;fill-opacity:1;fill-rule:nonzero;stroke:none"
         d="M 365.34,307.762 H 334.293 L 303.434,164.285 h 31.054 l 30.852,143.477" /><path
         id="path20"
         style="fill:#231f20;fill-opacity:1;fill-rule:nonzero;stroke:none"
         d="M 474.117,307.762 H 387.332 L 356.668,164.285 h 87.754 l 5.594,26.028 h -56.719 l 7.715,35.691 h 49.191 l 5.594,25.832 h -49.188 l 6.368,29.891 h 55.546 l 5.594,26.035" /><path
         id="path22"
         style="fill:#231f20;fill-opacity:1;fill-rule:nonzero;stroke:none"
         d="m 270.145,233.477 c -3.665,-16.965 -13.887,-37.618 -36.262,-42.051 -4.61,-0.774 -8.867,-0.965 -12.528,-0.965 h -14.66 l 19.289,90.652 h 13.301 c 3.289,0 7.723,-0.187 11.199,-0.773 20.442,-3.465 24.68,-24.293 19.661,-46.863 z m -12.043,73.328 c -5.977,0.781 -13.875,0.957 -18.711,0.957 H 200.25 L 169.586,164.285 h 51.699 c 4.621,0 10.403,0.188 14.465,0.754 40.488,5.027 60.164,34.336 65.945,64.238 8.106,41.649 -6.543,72.129 -43.593,77.528" /><path
         id="path24"
         style="fill:#231f20;fill-opacity:1;fill-rule:nonzero;stroke:none"
         d="M 989.852,307.762 H 881.09 l -5.789,-26.602 h 38.953 L 889.188,164.285 h 31.042 l 25.079,116.875 h 38.769 l 5.774,26.602" /><path
         id="path26"
         style="fill:#231f20;fill-opacity:1;fill-rule:nonzero;stroke:none"
         d="m 728.414,235.793 c -5.019,-23.156 -14.461,-47.246 -40.691,-47.246 -25.274,0 -28.743,23.719 -23.528,47.246 5,23.141 14.465,47.234 40.684,47.234 25.273,0 28.762,-23.703 23.535,-47.234 z m -21.277,73.512 c -49.778,0 -68.684,-33.75 -76.602,-73.282 -8.086,-39.531 8.699,-73.281 54.024,-73.281 49.754,0 68.66,33.75 76.57,73.281 8.086,39.532 -8.68,73.282 -53.992,73.282" /><path
         id="path28"
         style="fill:#231f20;fill-opacity:1;fill-rule:nonzero;stroke:none"
         d="m 776.941,265.535 c 0,-16.961 10.418,-25.273 20.243,-32.793 l 16.398,-12.148 c 3.281,-2.508 6.367,-4.629 8.68,-7.324 2.121,-2.313 3.847,-4.629 3.847,-8.29 0,-5.207 -2.5,-8.488 -5.976,-10.8 -6.551,-4.25 -16.766,-4.25 -22.949,-4.25 -9.825,0 -25.059,2.883 -30.86,5.215 l -9.258,-26.239 c 11.184,-4.043 29.122,-5.781 42.051,-5.781 15.625,0 26.809,2.109 36.262,6.172 16.961,7.137 25.449,20.449 25.449,36.062 0,9.25 -3.078,15.434 -7.316,21.02 -3.485,4.441 -9.071,9.266 -15.43,14.09 l -14.852,11.179 c -7.519,5.586 -13.125,9.836 -13.125,16.399 0,6.164 4.247,11.562 12.157,12.527 4.824,0.586 9.258,0.586 16.593,0.586 h 23.516 l 5.789,26.602 h -26.23 c -7.52,0 -17.364,0 -25.828,-0.957 -20.254,-2.313 -39.161,-16.778 -39.161,-41.27" /><path
         id="path30"
         style="fill:#231f20;fill-opacity:1;fill-rule:nonzero;stroke:none"
         d="m 592.535,257.234 c -1.922,-11.953 -10.027,-19.285 -20.437,-21.796 -2.512,-0.567 -7.149,-0.958 -9.836,-0.958 h -12.539 l 10.031,46.868 h 13.496 c 3.848,0 6.746,-0.383 9.063,-1.153 7.714,-2.511 12.351,-10.039 10.222,-22.961 z m -4.629,49.571 c -3.66,0.578 -8.875,0.957 -14.082,0.957 h -39.14 l -30.86,-143.477 h 30.86 l 9.445,43.77 h 17.937 c 9.446,0 15.618,0.968 21.614,2.707 22.168,6.758 36.445,25.261 39.715,44.941 4.835,26.805 -8.661,46.672 -35.489,51.102" /><path
         id="path32"
         style="fill:#ed1c24;fill-opacity:1;fill-rule:nonzero;stroke:none"
         d="m 1135.27,307.879 c 0,0 18.32,86.25 18.41,86.73 -0.47,0 -116.26,0 -116.58,0 -0.05,-0.304 -24.23,-113.117 -24.33,-113.586 0.47,0 28.56,0 28.86,0 0.07,0.305 18.58,86.719 18.58,86.719 h 58.89 c 0,0 -18.49,-86.25 -18.6,-86.719 0.46,0 87.44,0 87.44,0 l -11.61,-54.246 c 0,0 -86.67,0 -86.98,0 -0.07,-0.312 -17.37,-81.113 -17.37,-81.113 0,0 -65.6,0 -65.9,0 -0.06,-0.312 -5.63,-26.785 -5.73,-27.238 0.47,0 94.46,0 94.77,0 0.06,0.304 17.46,81.301 17.46,81.301 0,0 86.33,0 86.65,0 0.07,0.312 23.1,107.695 23.2,108.152 -0.48,0 -87.16,0 -87.16,0" /></g></g></svg>